<svg width="800" height="800" viewBox="0 0 800 800" fill="none" xmlns="http://www.w3.org/2000/svg">
<path d="M337.975 340.35C282.562 440.025 437.325 514.163 350 551.5C262.687 588.85 220.675 506.125 176.825 400.7C132.95 295.275 168.187 179.525 255.512 142.2C342.825 104.838 411.275 208.4 337.975 340.35Z" fill="white"/>
<path d="M299.425 68.0126C299.613 38.8876 319.1 24.8001 343 25.0001C366.888 25.1751 386.163 39.5251 385.95 68.6501C385.663 110.325 366.15 130.663 342.263 130.5C318.375 130.338 299.113 109.7 299.425 68.0126Z" fill="white"/>
<path d="M226.7 82.1627C223.65 61.4252 235.938 49.2502 252.95 46.6877C269.938 44.1002 285.213 52.1377 288.25 72.8627C292.6 102.513 280.975 119.163 263.975 121.725C246.975 124.275 231.05 111.8 226.7 82.1627Z" fill="white"/>
<path d="M173.237 118.125C168.325 100.45 177.712 88.4625 192.237 84.3375C206.762 80.2125 220.9 85.4875 225.812 103.188C232.825 128.475 224.5 144.25 209.975 148.375C195.45 152.5 180.237 143.413 173.237 118.125Z" fill="white"/>
<path d="M144.362 168C138.775 154.962 144.712 144.787 155.412 140.075C166.112 135.362 177.512 137.9 183.112 150.937C191.087 169.587 186.375 182.55 175.675 187.287C164.987 192 152.387 186.65 144.362 168Z" fill="white"/>
<path d="M126.713 211.362C122.25 200.937 126.975 192.812 135.55 189.05C144.1 185.262 153.2 187.287 157.688 197.712C164.075 212.6 160.288 222.975 151.725 226.762C143.188 230.525 133.113 226.25 126.713 211.362Z" fill="white"/>
<path d="M440.6 551.912C476.95 660.237 311.35 704.212 390.375 757.212C469.437 810.225 525.737 736.775 588.012 641.337C650.275 545.9 636.712 425.562 557.637 372.537C478.6 319.537 392.5 408.562 440.6 551.912Z" fill="white"/>
<path d="M527.95 291.462C533.05 262.8 516.463 245.312 492.938 241.012C469.413 236.712 447.863 247.237 442.775 275.9C435.488 316.925 450.975 340.55 474.5 344.85C498.025 349.162 520.675 332.487 527.95 291.462Z" fill="white"/>
<path d="M596.862 318.937C603.625 299.137 593.762 284.85 577.512 279.162C561.275 273.45 544.825 278.5 538.062 298.312C528.4 326.612 536.8 345.162 553.037 350.85C569.275 356.537 587.212 347.25 596.862 318.937Z" fill="white"/>
<path d="M642.9 364.275C650.925 347.8 643.875 334.275 630.375 327.512C616.85 320.75 601.987 323.287 593.95 339.762C582.462 363.325 587.775 380.362 601.288 387.15C614.788 393.912 631.4 387.825 642.9 364.275Z" fill="white"/>
<path d="M662.187 418.688C670.062 406.925 666.075 395.788 656.4 389.175C646.75 382.538 635.087 382.9 627.212 394.663C615.975 411.488 618.262 425.138 627.937 431.775C637.575 438.413 650.937 435.513 662.187 418.688Z" fill="white"/>
<path d="M671.662 464.588C677.95 455.188 674.75 446.3 667.037 441C659.312 435.7 650.025 436 643.712 445.4C634.725 458.85 636.587 469.725 644.287 475.05C651.987 480.35 662.675 478.025 671.662 464.588Z" fill="white"/>
</svg>
